<?xml version="1.0" encoding="UTF-8"?>
<svg width="51px" height="50px" viewBox="0 0 51 50" version="1.1" xmlns="http://www.w3.org/2000/svg" xmlns:xlink="http://www.w3.org/1999/xlink">
    <!-- Generator: Sketch 52 (66869) - http://www.bohemiancoding.com/sketch -->
    <title>flaticon1529289197-svg</title>
    <desc>Created with Sketch.</desc>
    <g id="Symbols" stroke="none" stroke-width="1" fill="none" fill-rule="evenodd">
        <g id="Home/Difference" transform="translate(-247.000000, -361.000000)" fill="#C00404" fill-rule="nonzero">
            <g id="Brown-Difference">
                <g id="Group-10" transform="translate(184.000000, 361.000000)">
                    <g id="flaticon1529289197-svg" transform="translate(63.000000, 0.000000)">
                        <path d="M27.4998521,20 C23.9158998,20 21,22.9159441 21,26.4999507 C21,30.0841545 23.9158998,33 27.4998521,33 C31.0841002,33 34,30.0840559 34,26.4999507 C33.9999014,22.9159441 31.0841002,20 27.4998521,20 Z M27.4998521,30.5404766 C25.2719259,30.5404766 23.4594861,28.7279107 23.4594861,26.4999507 C23.4594861,24.2719907 25.2720245,22.4595234 27.4998521,22.4595234 C29.7277782,22.4595234 31.5404153,24.2720893 31.5404153,26.4999507 C31.5404153,28.727812 29.7278769,30.5404766 27.4998521,30.5404766 Z" id="Shape"></path>
                        <path d="M50.8304111,14.8735131 C51.3139145,11.3593867 50.7588916,8.37035957 49.2251081,6.16247934 C49.4761234,5.61442536 49.6170706,5.0069652 49.6170706,4.36719124 C49.6170706,1.95912303 47.6363402,0 45.2014912,0 C43.5561453,0 42.1189828,0.895427399 41.3594621,2.21871718 C37.1996794,2.01311074 32.1065578,3.52486488 26.8347372,6.53704364 C17.8338444,1.39215366 9.68451124,0.774152107 5.45709384,4.95672117 C3.61980086,6.7738802 2.66823351,9.37395941 2.67261631,12.5151964 C1.10217657,13.1852153 0,14.730958 0,16.5270342 C0,18.9351024 1.98082994,20.8942255 4.41557931,20.8942255 C4.4411789,20.8942255 4.46638004,20.8927477 4.49188001,20.8922551 C5.17101601,22.6005521 6.03004636,24.3459902 7.05482652,26.1000979 C1.85293163,35.0022561 1.22818229,43.0622849 5.45689462,47.2433762 C7.32247663,49.0890068 9.95086643,50.0000985 13.0796932,50 C17.0415523,49.9999015 21.8055648,48.5377017 26.8346376,45.6632507 C31.8641089,48.5379973 36.6276234,50 40.5898809,50 C43.718608,50 46.3477947,49.0890068 48.2135759,47.2436717 C52.4419894,43.0614967 51.8161444,35.0010738 46.612855,26.0994083 C48.9014776,22.1809652 50.357267,18.3125691 50.8304111,14.8735131 Z M45.2014912,2.45693299 C46.2664139,2.45693299 47.132915,3.31393848 47.132915,4.36719124 C47.132915,5.420444 46.2664139,6.27744949 45.2014912,6.27744949 C44.1365685,6.27744949 43.2700675,5.420444 43.2700675,4.36719124 C43.2700675,3.31393848 44.1364689,2.45693299 45.2014912,2.45693299 Z M40.7966697,4.65712884 C40.9481754,6.93042483 42.8652554,8.734481 45.2014912,8.734481 C46.0472736,8.734481 46.8379719,8.49764444 47.5101353,8.08820487 C48.4296285,9.73936157 48.7268625,11.9410352 48.3689664,14.5423951 C47.9848731,17.3346824 46.8665598,20.4724712 45.1159269,23.7069059 C43.1201556,20.7131499 40.721664,17.8230346 37.962786,15.0941928 C35.2040077,12.3656465 32.2809737,9.99284761 29.2524534,8.01727212 C33.4930193,5.76831001 37.4977103,4.60186041 40.7966697,4.65712884 Z M4.41557931,18.4372925 C3.35065661,18.4372925 2.48415558,17.5803855 2.48415558,16.5270342 C2.48415558,15.4737815 3.35065661,14.616776 4.41557931,14.616776 C5.48050201,14.616776 6.34700305,15.4737815 6.34700305,16.5270342 C6.34710266,17.580287 5.48060162,18.4372925 4.41557931,18.4372925 Z M6.87064898,20.1550472 C8.05211453,19.3704522 8.83125824,18.0371136 8.83125824,16.5270342 C8.83125824,14.369201 7.24009976,12.5728292 5.15756876,12.2226973 C5.20787144,9.88181816 5.90882187,7.98466276 7.21370331,6.69398234 C10.3898445,3.55176022 17.01665,4.10424749 24.4150289,8.01855285 C21.3871063,9.99383279 18.4649687,12.3662376 15.7067881,15.0941928 C12.948209,17.822542 10.5494185,20.7129529 8.55225267,23.7077926 C7.9034975,22.5092262 7.34200005,21.3216938 6.87064898,20.1550472 Z M7.21340448,45.506115 C4.03636682,42.364878 4.59497561,35.8105938 8.55265111,28.493487 C10.5497174,31.4881296 12.9484082,34.3782449 15.7066885,37.1062986 C18.4649687,39.8342538 21.3871063,42.2066586 24.4149292,44.1819386 C17.0165504,48.0959484 10.3898445,48.6484356 7.21340448,45.506115 Z M17.4633975,35.3688404 C14.5041057,32.4420765 11.979708,29.3269468 9.95076682,26.1000979 C11.9795088,22.8733476 14.5040061,19.7583164 17.4633975,16.8313554 C20.4226893,13.904493 23.5722348,11.4076603 26.8348368,9.40105177 C30.0973393,11.4077589 33.2469844,13.904493 36.2062761,16.8313554 C39.1664644,19.759203 41.6905633,22.8741358 43.7177116,26.1000979 C41.6906629,29.3258631 39.166564,32.4409928 36.2062761,35.3688404 C33.2469844,38.2957029 30.0973393,40.7925355 26.8348368,42.7991441 C23.5723344,40.7925355 20.4225897,38.2957029 17.4633975,35.3688404 Z M46.4569665,45.5062135 C43.2798292,48.6482386 36.6527249,48.0959484 29.2544456,44.18184 C32.2822686,42.2066586 35.2044061,39.8342538 37.9626864,37.1062001 C40.7217636,34.3773583 43.1200559,31.4872429 45.1157277,28.493684 C49.0742996,35.8103968 49.6336057,42.3645825 46.4569665,45.5062135 Z" id="Shape"></path>
                    </g>
                </g>
            </g>
        </g>
    </g>
</svg>