<?xml version="1.0" encoding="UTF-8"?>
<svg width="53px" height="53px" viewBox="0 0 53 53" version="1.1" xmlns="http://www.w3.org/2000/svg" xmlns:xlink="http://www.w3.org/1999/xlink">
    <!-- Generator: Sketch 52 (66869) - http://www.bohemiancoding.com/sketch -->
    <title>flaticon1529289239-svg</title>
    <desc>Created with Sketch.</desc>
    <g id="Symbols" stroke="none" stroke-width="1" fill="none" fill-rule="evenodd">
        <g id="Home/Difference" transform="translate(-1144.000000, -358.000000)" fill="#C00404" fill-rule="nonzero">
            <g id="Brown-Difference">
                <g id="flaticon1529289239-svg" transform="translate(1144.000000, 358.000000)">
                    <path d="M53,16.2416735 C53,14.8277931 51.8493871,13.6771988 50.4354839,13.6771988 C50.1414194,13.6771988 49.8627419,13.7370365 49.5994516,13.8285028 L45.7689194,9.04062838 C46.0134032,8.64826374 46.1612903,8.18922275 46.1612903,7.6934243 C46.1612903,6.27954388 45.0106774,5.12894953 43.5967742,5.12894953 C42.8778548,5.12894953 42.2298871,5.42813826 41.764,5.90513056 L35.0253065,2.7952775 C35.0321452,2.71834325 35.0483871,2.64397348 35.0483871,2.56447477 C35.0483871,1.15059435 33.8977742,0 32.483871,0 C31.370871,0 30.4305484,0.71719811 30.0766452,1.70964984 L20.3588387,1.70964984 C20.0049355,0.71719811 19.0646129,0 17.9516129,0 C16.5377097,0 15.3870968,1.15059435 15.3870968,2.56447477 C15.3870968,2.67047306 15.4059032,2.77219722 15.4187258,2.87563104 L11.1787258,4.99559685 C10.7171129,4.55108789 10.0930806,4.27412461 9.40322581,4.27412461 C7.98932258,4.27412461 6.83870968,5.42471896 6.83870968,6.83859938 C6.83870968,7.33439783 6.98659677,7.79343882 7.23108065,8.18580345 L3.40054839,12.9736778 C3.13725806,12.8822116 2.85858065,12.8223738 2.56451613,12.8223738 C1.1506129,12.8223738 0,13.9729682 0,15.3868486 C0,16.4998306 0.717209677,17.4401381 1.70967742,17.7940356 L1.70967742,23.2384155 C0.717209677,23.5914582 0,24.5317656 0,25.6447477 C0,27.0586281 1.1506129,28.2092224 2.56451613,28.2092224 C3.51424194,28.2092224 4.3348871,27.6843599 4.77854839,26.9158723 L9.4451129,27.7638586 C9.64258065,28.982839 10.6940323,29.9188723 11.9677419,29.9188723 C12.0019355,29.9188723 12.0344194,29.910324 12.0686129,29.9086144 L13.6996452,33.9869841 C13.1662258,34.4571378 12.8225806,35.1375784 12.8225806,35.9026467 C12.8225806,37.3165272 13.9731935,38.4671215 15.3870968,38.4671215 C16.2470645,38.4671215 17.0053065,38.0379994 17.4703387,37.3874776 L24.8065645,39.4835083 C24.8723871,40.5246851 25.5562581,41.3923324 26.5,41.7291334 L26.5,48.0283383 C25.5075323,48.3822358 24.7903226,49.3225432 24.7903226,50.4355252 C24.7903226,51.8494057 25.9409355,53 27.3548387,53 C28.7687419,53 29.9193548,51.8494057 29.9193548,50.4355252 C29.9193548,49.3225432 29.2021452,48.3822358 28.2096774,48.0283383 L28.2096774,41.7291334 C29.2021452,41.3752359 29.9193548,40.4349285 29.9193548,39.3219464 C29.9193548,38.5030241 29.526129,37.7806971 28.9268871,37.3105434 L29.9475645,34.2477057 L37.6180323,36.804487 C37.6385484,37.8960985 38.3446452,38.8150352 39.3225806,39.1638038 L39.3225806,48.0274834 C38.3301129,48.3813809 37.6129032,49.3216884 37.6129032,50.4346704 C37.6129032,51.8485508 38.7635161,52.9991452 40.1774194,52.9991452 C41.5913226,52.9991452 42.7419355,51.8485508 42.7419355,50.4346704 C42.7419355,49.3216884 42.0247258,48.3813809 41.0322581,48.0274834 L41.0322581,39.1646586 C42.0247258,38.8107611 42.7419355,37.8704537 42.7419355,36.7574717 C42.7419355,36.4454606 42.6778226,36.1496911 42.5752419,35.8727279 L49.1344194,30.4069773 C49.5165323,30.6343607 49.9584839,30.7736972 50.4354839,30.7736972 C51.8493871,30.7736972 53,29.6231029 53,28.2092224 C53,27.0962404 52.2827903,26.155933 51.2903226,25.8020355 L51.2903226,18.6480057 C52.2827903,18.294963 53,17.3546556 53,16.2416735 Z M43.5967742,6.83859938 C44.0677903,6.83859938 44.4516129,7.22156094 44.4516129,7.6934243 C44.4516129,8.16528766 44.0677903,8.54824922 43.5967742,8.54824922 C43.1257581,8.54824922 42.7419355,8.16528766 42.7419355,7.6934243 C42.7419355,7.22156094 43.1257581,6.83859938 43.5967742,6.83859938 Z M42.3811935,9.93733972 C42.7445,10.1356591 43.1548226,10.2578991 43.5967742,10.2578991 C43.8908387,10.2578991 44.1686613,10.1980613 44.4319516,10.1065951 L48.2624839,14.8953243 C48.0188548,15.2876889 47.8709677,15.7458751 47.8709677,16.2416735 C47.8709677,16.3793003 47.890629,16.5117982 47.912,16.6442961 L41.8563226,19.9473396 L37.4462097,16.2724472 C37.5487903,15.9946291 37.6129032,15.6988597 37.6129032,15.3868486 C37.6129032,15.0397897 37.5419516,14.7081176 37.4162903,14.4063644 L42.3811935,9.93733972 Z M31.6290323,23.9350978 C31.2340968,23.9350978 30.8648065,24.031693 30.5305645,24.1924001 L26.9086129,20.5705069 L33.3028065,17.2546411 C33.7618548,17.6837632 34.3722097,17.9513234 35.0483871,17.9513234 C35.5253871,17.9513234 35.9664839,17.8119869 36.3494516,17.5846035 L40.2415323,20.8278092 L33.331871,24.5967323 C32.8779516,24.1898356 32.2855484,23.9350978 31.6290323,23.9350978 Z M32.483871,26.4995726 C32.483871,26.9714359 32.1000484,27.3543975 31.6290323,27.3543975 C31.1580161,27.3543975 30.7741935,26.9714359 30.7741935,26.4995726 C30.7741935,26.0277092 31.1580161,25.6447477 31.6290323,25.6447477 C32.1000484,25.6447477 32.483871,26.0277092 32.483871,26.4995726 Z M19.5595645,17.0853857 L20.9948387,21.7099885 L13.7133226,25.4857502 C13.4081452,25.2010935 13.0345806,24.9942259 12.619129,24.8839535 L11.4343226,15.7988742 L17.2916774,15.5056693 C17.6635323,16.4066547 18.5354677,17.0443541 19.5595645,17.0853857 Z M18.8064516,14.5320237 C18.8064516,14.0601603 19.1902742,13.6771988 19.6612903,13.6771988 C20.1323065,13.6771988 20.516129,14.0601603 20.516129,14.5320237 C20.516129,15.003887 20.1323065,15.3868486 19.6612903,15.3868486 C19.1902742,15.3868486 18.8064516,15.003887 18.8064516,14.5320237 Z M21.5085968,23.3700585 L23.6764677,30.3565426 L14.527129,27.3065273 C14.5254194,27.2039483 14.5100323,27.1047886 14.4963548,27.0056289 L21.5085968,23.3700585 Z M21.5026129,17.5828938 L24.0483226,20.1277076 L22.5361129,20.9115821 L21.5026129,17.5828938 Z M21.9693548,15.6304737 C22.1292097,15.2962372 22.2258065,14.9269528 22.2258065,14.5320237 C22.2258065,14.1678683 22.1471613,13.822519 22.0103871,13.5087982 L26.0691613,9.72021419 L32.6120968,14.6269092 C32.5360161,14.8696795 32.483871,15.120998 32.483871,15.3868486 C32.483871,15.5065241 32.5035323,15.6202158 32.5189194,15.7356172 L25.6400323,19.3019467 L21.9693548,15.6304737 Z M34.1935484,15.3868486 C34.1935484,14.9149852 34.577371,14.5320237 35.0483871,14.5320237 C35.5194032,14.5320237 35.9032258,14.9149852 35.9032258,15.3868486 C35.9032258,15.858712 35.5194032,16.2416735 35.0483871,16.2416735 C34.577371,16.2416735 34.1935484,15.858712 34.1935484,15.3868486 Z M41.6545806,22.0049031 L47.7795,27.1090628 L34.508129,25.9029048 L41.6545806,22.0049031 Z M32.483871,1.70964984 C32.9548871,1.70964984 33.3387097,2.09261141 33.3387097,2.56447477 C33.3387097,3.03633812 32.9548871,3.41929969 32.483871,3.41929969 C32.0128548,3.41929969 31.6290323,3.03633812 31.6290323,2.56447477 C31.6290323,2.09261141 32.0128548,1.70964984 32.483871,1.70964984 Z M31.3093226,4.83061564 C31.662371,5.01440299 32.0581613,5.12894953 32.483871,5.12894953 C33.2027903,5.12894953 33.8507581,4.82976081 34.3175,4.35191368 L41.0553387,7.46176675 C41.0485,7.53955581 41.0322581,7.61392558 41.0322581,7.6934243 C41.0322581,8.04133804 41.1032097,8.37215529 41.228871,8.67476331 L36.2639677,13.1429332 C35.9006613,12.9446138 35.4903387,12.8223738 35.0483871,12.8223738 C34.5235161,12.8223738 34.0354032,12.9822261 33.6285,13.2540604 L27.3385968,8.53628167 L31.3093226,4.83061564 Z M30.0766452,3.41929969 C30.0971613,3.47486331 30.1116935,3.5329914 30.1347742,3.58684537 L25.948629,7.49339527 L20.516129,3.41929969 L30.0766452,3.41929969 Z M17.9516129,1.70964984 C18.422629,1.70964984 18.8064516,2.09261141 18.8064516,2.56447477 C18.8064516,3.03633812 18.422629,3.41929969 17.9516129,3.41929969 C17.4805968,3.41929969 17.0967742,3.03633812 17.0967742,2.56447477 C17.0967742,2.09261141 17.4805968,1.70964984 17.9516129,1.70964984 Z M11.9677419,6.83859938 C11.9677419,6.73260109 11.9489355,6.63087692 11.9361129,6.52829793 L16.1761129,4.40833212 C16.6377258,4.85198626 17.2617581,5.12894953 17.9516129,5.12894953 C18.4764839,5.12894953 18.9645968,4.96909727 19.3715,4.69726295 L24.6791935,8.67818261 L20.8358387,12.265028 C20.4827903,12.0812406 20.087,11.9675489 19.6612903,11.9675489 C18.5038387,11.9675489 17.5344516,12.7428751 17.2164516,13.7977291 L11.2120645,14.0977726 L10.5623871,9.1132885 C11.3924355,8.68844051 11.9677419,7.83361559 11.9677419,6.83859938 Z M9.40322581,5.98377446 C9.87424194,5.98377446 10.2580645,6.36673602 10.2580645,6.83859938 C10.2580645,7.31046273 9.87424194,7.6934243 9.40322581,7.6934243 C8.93220968,7.6934243 8.5483871,7.31046273 8.5483871,6.83859938 C8.5483871,6.36673602 8.93220968,5.98377446 9.40322581,5.98377446 Z M8.56719355,9.25177013 C8.66635484,9.28596313 8.76380645,9.3227206 8.86724194,9.34494605 L9.4981129,14.1841099 L4.93412903,14.4123482 C4.88027419,14.28156 4.81103226,14.15932 4.73666129,14.0396445 L8.56719355,9.25177013 Z M2.56451613,14.5320237 C3.03553226,14.5320237 3.41935484,14.9149852 3.41935484,15.3868486 C3.41935484,15.858712 3.03553226,16.2416735 2.56451613,16.2416735 C2.0935,16.2416735 1.70967742,15.858712 1.70967742,15.3868486 C1.70967742,14.9149852 2.0935,14.5320237 2.56451613,14.5320237 Z M2.56451613,26.4995726 C2.0935,26.4995726 1.70967742,26.116611 1.70967742,25.6447477 C1.70967742,25.1728843 2.0935,24.7899227 2.56451613,24.7899227 C3.03553226,24.7899227 3.41935484,25.1728843 3.41935484,25.6447477 C3.41935484,26.116611 3.03553226,26.4995726 2.56451613,26.4995726 Z M9.75370968,26.0832729 L5.088,25.2352865 C4.93669355,24.3043822 4.28701613,23.5470073 3.41935484,23.2375607 L3.41935484,17.7931808 C4.18272581,17.5204916 4.77427419,16.9007435 5.00935484,16.1202884 L9.72122581,15.8843567 L10.912871,25.0224351 C10.4221935,25.2455444 10.0212742,25.6191029 9.75370968,26.0832729 Z M11.9677419,28.2092224 C11.4967258,28.2092224 11.1129032,27.8262609 11.1129032,27.3543975 C11.1129032,26.8825342 11.4967258,26.4995726 11.9677419,26.4995726 C12.4387581,26.4995726 12.8225806,26.8825342 12.8225806,27.3543975 C12.8225806,27.8262609 12.4387581,28.2092224 11.9677419,28.2092224 Z M15.3870968,36.7574717 C14.9160806,36.7574717 14.5322581,36.3745101 14.5322581,35.9026467 C14.5322581,35.4307834 14.9160806,35.0478218 15.3870968,35.0478218 C15.8581129,35.0478218 16.2419355,35.4307834 16.2419355,35.9026467 C16.2419355,36.3745101 15.8581129,36.7574717 15.3870968,36.7574717 Z M25.2724516,37.8371155 L17.9362258,35.7410848 C17.8498871,34.4032838 16.7462903,33.338172 15.3870968,33.338172 C15.3529032,33.338172 15.3204194,33.3467202 15.2862258,33.3484299 L13.6551935,29.2700602 C13.7740161,29.1649167 13.8817258,29.0503702 13.9800323,28.9255657 L24.3013548,32.366236 L25.8255323,37.2763504 C25.6143871,37.4353478 25.4263226,37.6225545 25.2724516,37.8371155 Z M27.3548387,51.2894953 C26.8838226,51.2894953 26.5,50.9065338 26.5,50.4346704 C26.5,49.9628071 26.8838226,49.5798455 27.3548387,49.5798455 C27.8258548,49.5798455 28.2096774,49.9628071 28.2096774,50.4346704 C28.2096774,50.9065338 27.8258548,51.2894953 27.3548387,51.2894953 Z M27.3548387,40.1767713 C26.8838226,40.1767713 26.5,39.7938098 26.5,39.3219464 C26.5,38.8500831 26.8838226,38.4671215 27.3548387,38.4671215 C27.8258548,38.4671215 28.2096774,38.8500831 28.2096774,39.3219464 C28.2096774,39.7938098 27.8258548,40.1767713 27.3548387,40.1767713 Z M27.3839032,36.5317979 L26.2974032,33.0321446 L28.3250806,33.7083112 L27.3839032,36.5317979 Z M28.8661935,32.0858535 L25.6742258,31.0215964 L23.0515806,22.5707972 L25.3169032,21.3962678 L29.3218226,25.4011226 C29.1611129,25.7353591 29.0645161,26.1046435 29.0645161,26.4995726 C29.0645161,27.3184949 29.4577419,28.0416767 30.0578387,28.5109756 L28.8661935,32.0858535 Z M40.1774194,51.2894953 C39.7064032,51.2894953 39.3225806,50.9065338 39.3225806,50.4346704 C39.3225806,49.9628071 39.7064032,49.5798455 40.1774194,49.5798455 C40.6484355,49.5798455 41.0322581,49.9628071 41.0322581,50.4346704 C41.0322581,50.9065338 40.6484355,51.2894953 40.1774194,51.2894953 Z M40.1774194,37.6122966 C39.7064032,37.6122966 39.3225806,37.229335 39.3225806,36.7574717 C39.3225806,36.2856083 39.7064032,35.9026467 40.1774194,35.9026467 C40.6484355,35.9026467 41.0322581,36.2856083 41.0322581,36.7574717 C41.0322581,37.229335 40.6484355,37.6122966 40.1774194,37.6122966 Z M41.4784839,34.558862 C41.0955161,34.3323333 40.6544194,34.1929969 40.1774194,34.1929969 C39.3584839,34.1929969 38.6352903,34.5862164 38.1659839,35.1863034 L30.4878226,32.6269576 L31.6769032,29.0589184 C32.6873226,29.0401123 33.5515645,28.4348962 33.951629,27.5689586 L47.9590161,28.8417929 C47.9812419,28.9272754 48.0068871,29.0110482 48.0376613,29.0931114 L41.4784839,34.558862 Z M43.269371,21.1235787 L48.7326452,18.143659 C48.9779839,18.3642038 49.2643548,18.5351688 49.5815,18.6480057 L49.5815,25.8020355 C49.4242097,25.8584539 49.2754677,25.9276947 49.1344194,26.0114676 L43.269371,21.1235787 Z M50.4354839,29.0640474 C49.9644677,29.0640474 49.5806452,28.6810858 49.5806452,28.2092224 C49.5806452,27.7373591 49.9644677,27.3543975 50.4354839,27.3543975 C50.9065,27.3543975 51.2903226,27.7373591 51.2903226,28.2092224 C51.2903226,28.6810858 50.9065,29.0640474 50.4354839,29.0640474 Z M50.4354839,17.0964984 C49.9644677,17.0964984 49.5806452,16.7135369 49.5806452,16.2416735 C49.5806452,15.7698102 49.9644677,15.3868486 50.4354839,15.3868486 C50.9065,15.3868486 51.2903226,15.7698102 51.2903226,16.2416735 C51.2903226,16.7135369 50.9065,17.0964984 50.4354839,17.0964984 Z" id="Shape"></path>
                    <polygon id="Rectangle-path" points="1.73770492 0 3.47540984 0 3.47540984 1.73770492 1.73770492 1.73770492"></polygon>
                    <polygon id="Rectangle-path" points="1.73770492 3.47540984 3.47540984 3.47540984 3.47540984 5.21311475 1.73770492 5.21311475"></polygon>
                    <rect id="Rectangle-path" x="3.47540984" y="1.73770492" width="1.73770492" height="1.73770492"></rect>
                    <rect id="Rectangle-path" x="0" y="1.73770492" width="1.73770492" height="1.73770492"></rect>
                    <rect id="Rectangle-path" x="44.3114754" y="39.0983607" width="1.73770492" height="1.73770492"></rect>
                    <rect id="Rectangle-path" x="44.3114754" y="42.5737705" width="1.73770492" height="1.73770492"></rect>
                    <polygon id="Rectangle-path" points="46.0491803 41.704918 47.7868852 41.704918 47.7868852 43.442623 46.0491803 43.442623"></polygon>
                    <polygon id="Rectangle-path" points="42.5737705 41.704918 44.3114754 41.704918 44.3114754 43.442623 42.5737705 43.442623"></polygon>
                    <polygon id="Rectangle-path" points="49.5245902 3.47540984 51.2622951 3.47540984 51.2622951 5.21311475 49.5245902 5.21311475"></polygon>
                    <polygon id="Rectangle-path" points="49.5245902 6.95081967 51.2622951 6.95081967 51.2622951 8.68852459 49.5245902 8.68852459"></polygon>
                    <polygon id="Rectangle-path" points="51.2622951 5.21311475 53 5.21311475 53 6.95081967 51.2622951 6.95081967"></polygon>
                    <polygon id="Rectangle-path" points="47.7868852 5.21311475 49.5245902 5.21311475 49.5245902 6.95081967 47.7868852 6.95081967"></polygon>
                    <polygon id="Rectangle-path" points="10.4262295 41.704918 12.1639344 41.704918 12.1639344 43.442623 10.4262295 43.442623"></polygon>
                    <polygon id="Rectangle-path" points="10.4262295 44.3114754 12.1639344 44.3114754 12.1639344 46.0491803 10.4262295 46.0491803"></polygon>
                    <polygon id="Rectangle-path" points="11.295082 42.5737705 13.0327869 42.5737705 13.0327869 44.3114754 11.295082 44.3114754"></polygon>
                    <polygon id="Rectangle-path" points="8.68852459 42.5737705 10.4262295 42.5737705 10.4262295 44.3114754 8.68852459 44.3114754"></polygon>
                    <rect id="Rectangle-path" x="5.21311475" y="31.2786885" width="1.73770492" height="1.73770492"></rect>
                    <polygon id="Rectangle-path" points="5.21311475 34.7540984 6.95081967 34.7540984 6.95081967 36.4918033 5.21311475 36.4918033"></polygon>
                    <polygon id="Rectangle-path" points="6.95081967 33.8852459 8.68852459 33.8852459 8.68852459 35.6229508 6.95081967 35.6229508"></polygon>
                    <polygon id="Rectangle-path" points="3.47540984 33.8852459 5.21311475 33.8852459 5.21311475 35.6229508 3.47540984 35.6229508"></polygon>
                </g>
            </g>
        </g>
    </g>
</svg>