<?xml version="1.0" standalone="no"?>
<!DOCTYPE svg PUBLIC "-//W3C//DTD SVG 20010904//EN"
 "http://www.w3.org/TR/2001/REC-SVG-20010904/DTD/svg10.dtd">
<svg version="1.0" xmlns="http://www.w3.org/2000/svg"
 width="500.000000pt" height="500.000000pt" viewBox="0 0 500.000000 500.000000"
 preserveAspectRatio="xMidYMid meet">
<metadata>
Created by potrace 1.11, written by Peter Selinger 2001-2013
</metadata>
<g transform="translate(0.000000,500.000000) scale(0.100000,-0.100000)"
fill="#000000" stroke="none">
<path d="M2466 4464 c-3 -9 -6 -27 -6 -41 0 -22 -3 -24 -22 -18 -45 14 -156
17 -193 5 -44 -15 -110 -71 -131 -113 -14 -26 -19 -28 -47 -23 -17 4 -48 22
-67 41 -45 44 -65 46 -57 5 6 -28 4 -30 -35 -41 -23 -6 -52 -18 -65 -26 -26
-17 -73 -91 -73 -115 0 -9 -16 -20 -40 -27 -22 -6 -56 -26 -75 -42 -32 -29
-36 -30 -57 -15 -47 33 -64 10 -28 -37 25 -32 25 -37 -2 -37 -61 -1 -150 -69
-164 -127 -10 -40 13 -98 52 -133 34 -30 40 -31 93 -26 31 4 88 6 127 6 47 -1
87 5 121 18 l51 19 44 -44 c24 -24 64 -58 91 -75 26 -17 47 -32 47 -32 0 -1
-69 1 -153 3 -324 8 -438 3 -526 -25 -29 -9 11 -32 77 -44 37 -7 103 -23 147
-37 53 -16 114 -27 180 -30 61 -3 131 -14 180 -28 44 -13 92 -26 106 -29 19
-4 28 -14 32 -33 6 -32 -9 -46 -38 -37 -108 32 -125 35 -195 30 -41 -2 -93
-11 -116 -19 -34 -13 -45 -13 -73 -1 -128 54 -277 3 -297 -101 -10 -56 29
-124 89 -154 43 -21 51 -22 90 -11 45 13 48 13 144 4 43 -4 69 -1 89 9 23 12
33 12 73 0 35 -11 73 -13 156 -8 61 4 126 6 145 5 50 -3 141 -3 170 -1 14 1
51 -1 82 -5 38 -4 68 -2 87 6 24 9 38 9 68 -1 53 -18 228 -16 274 4 33 13 42
13 84 -1 37 -12 59 -13 96 -6 29 6 54 7 64 1 9 -5 46 -6 83 -3 37 4 85 5 107
4 146 -7 242 -2 277 15 104 52 54 201 -81 241 -74 22 -192 20 -261 -3 -50 -18
-56 -18 -85 -3 -19 10 -64 17 -128 20 -93 4 -98 5 -95 26 4 30 84 55 180 56
104 0 221 17 288 42 30 11 102 33 160 49 122 33 160 48 160 60 0 29 -61 34
-408 32 -326 -1 -352 0 -340 15 62 84 131 128 173 112 34 -13 100 -13 148 1
30 8 48 7 85 -5 89 -31 166 -15 215 43 30 36 42 85 32 131 -9 43 -66 97 -111
106 -47 9 -63 41 -39 78 17 25 17 26 -3 26 -12 0 -23 -4 -26 -9 -3 -5 -27 3
-53 16 -41 21 -59 24 -123 21 l-76 -3 -18 38 c-21 44 -77 77 -131 77 -35 0
-36 1 -30 30 8 37 3 37 -41 4 l-35 -27 -35 42 c-42 49 -102 85 -166 101 -45
12 -81 8 -165 -16 -19 -5 -23 -2 -23 17 0 56 -21 88 -34 53z m-24 -118 c47
-24 47 -24 84 -6 115 59 244 20 322 -98 26 -38 40 -51 51 -46 9 3 43 8 76 11
55 5 64 3 92 -21 17 -15 34 -40 38 -56 9 -40 15 -42 75 -29 93 20 181 -18 208
-91 7 -18 22 -28 53 -37 95 -25 125 -112 61 -176 -29 -29 -38 -32 -90 -31 -34
0 -70 7 -90 17 -30 16 -36 16 -78 2 -59 -20 -100 -19 -150 4 -46 21 -100 82
-109 123 -6 27 -9 28 -66 28 -99 0 -158 33 -190 108 l-19 43 -52 -27 c-77 -39
-147 -38 -222 5 l-57 32 -39 -31 c-64 -51 -126 -73 -183 -67 -45 6 -52 4 -78
-22 -32 -33 -96 -51 -155 -44 l-41 5 -5 -56 c-8 -101 -80 -147 -223 -145 -33
0 -78 -2 -100 -6 -34 -6 -44 -3 -67 18 -73 68 -32 149 92 180 50 13 57 18 75
56 24 49 33 56 101 76 47 14 53 19 58 50 8 40 47 90 87 110 36 19 103 19 165
0 27 -8 52 -15 55 -15 3 0 14 18 24 39 37 83 126 136 210 126 22 -3 61 -16 87
-29z m-51 -327 c-2 -8 -6 -63 -9 -124 -5 -105 -6 -108 -21 -85 -9 14 -39 52
-68 86 l-52 62 38 17 c21 9 51 27 67 40 30 25 51 27 45 4z m304 -9 c4 -6 -12
-32 -35 -58 -23 -26 -52 -67 -65 -92 l-23 -45 -7 50 c-4 28 -10 64 -15 82 -9
37 -6 43 29 44 14 0 42 7 61 14 44 17 47 17 55 5z m-218 -16 c26 -7 43 -71 43
-159 l0 -55 -45 0 -45 0 0 73 c0 78 9 147 19 147 3 0 16 -3 28 -6z m-231 -106
c28 -35 60 -77 73 -95 l22 -32 -42 -21 c-26 -14 -45 -18 -51 -12 -5 5 -29 57
-53 116 -42 103 -42 106 -21 106 16 0 38 -20 72 -62z m508 43 c15 -17 15 -22
2 -52 -8 -19 -19 -52 -25 -74 -6 -22 -17 -49 -24 -59 -12 -17 -17 -17 -52 -5
-20 8 -39 19 -42 25 -11 28 84 184 111 184 7 0 21 -8 30 -19z m-622 -58 c14
-32 31 -74 38 -93 7 -19 17 -39 22 -44 18 -21 6 -26 -19 -8 -16 10 -59 31 -98
46 -101 40 -155 73 -155 96 0 17 7 20 48 20 27 0 62 8 82 19 19 10 40 19 46
20 6 0 22 -25 36 -56z m810 3 c16 -24 4 -37 -93 -96 -67 -40 -99 -55 -94 -43
4 10 14 38 21 63 31 100 28 97 97 92 34 -3 65 -10 69 -16z m-870 -146 c53 -23
102 -47 107 -54 7 -9 3 -23 -16 -50 -23 -31 -31 -36 -53 -31 -56 14 -204 121
-215 156 -4 10 -1 28 5 39 11 21 11 21 43 2 18 -11 76 -38 129 -62z m932 61
c16 -18 16 -20 -16 -42 -18 -13 -59 -52 -92 -86 -32 -35 -62 -63 -65 -63 -4 0
-22 18 -40 40 l-32 40 47 27 c25 16 72 45 103 65 66 43 72 44 95 19z m-361
-86 c105 -52 175 -148 198 -270 14 -76 6 -108 -31 -122 -24 -9 -39 -8 -80 8
-65 25 -186 25 -257 0 -47 -16 -54 -16 -80 -2 -21 12 -58 16 -150 16 l-123 0
-5 25 c-3 14 -1 48 4 77 26 134 101 226 228 279 50 21 70 24 148 21 75 -3 100
-8 148 -32z m882 -135 c3 -5 -3 -10 -14 -10 -10 0 -68 -15 -128 -34 -114 -36
-242 -56 -356 -56 -37 0 -84 -7 -104 -15 -19 -8 -37 -15 -38 -15 -2 0 -6 16
-9 36 -4 19 -10 42 -12 49 -12 29 89 44 289 44 104 -1 191 2 194 5 11 10 171
7 178 -4z m-1630 -22 c95 4 153 -4 179 -23 15 -12 17 -20 9 -52 -11 -45 -15
-45 -136 -7 -45 14 -103 24 -137 24 -58 0 -160 17 -255 44 -43 12 -46 14 -25
19 14 3 84 3 155 -1 72 -4 166 -5 210 -4z m-265 -256 c21 -11 53 -46 82 -88
41 -62 45 -70 30 -81 -9 -7 -31 -13 -49 -13 -27 0 -46 12 -98 60 -35 33 -71
60 -79 60 -32 0 -26 -23 13 -57 49 -41 42 -63 -19 -63 -74 0 -128 75 -98 137
28 59 146 83 218 45z m696 3 c56 -16 88 -47 128 -119 32 -59 25 -71 -41 -71
-43 0 -48 3 -102 63 -52 58 -77 72 -95 55 -3 -4 13 -26 36 -50 35 -36 40 -45
28 -53 -30 -19 -75 -11 -102 18 -33 36 -91 133 -83 140 8 8 114 30 151 31 17
1 53 -6 80 -14z m760 -15 c43 -18 67 -46 103 -118 l22 -42 -27 -10 c-50 -19
-94 -2 -153 62 -30 32 -58 58 -63 58 -23 0 -15 -30 17 -64 40 -43 38 -56 -10
-56 -44 0 -82 35 -125 112 l-31 56 53 11 c29 6 62 13 73 15 32 6 97 -5 141
-24z"/>
<path d="M2265 4314 c-59 -30 -91 -75 -69 -97 3 -3 26 10 52 30 48 36 54 37
171 21 37 -5 36 19 -1 42 -40 24 -111 26 -153 4z"/>
<path d="M2581 4309 c-53 -16 -81 -39 -81 -65 0 -29 4 -30 41 -3 68 48 161 37
225 -27 42 -41 64 -49 64 -22 0 22 -52 79 -91 98 -48 25 -113 33 -158 19z"/>
<path d="M1910 4178 c-37 -26 -75 -90 -66 -113 9 -25 25 -17 46 25 32 62 81
85 150 68 9 -2 16 6 18 20 3 21 0 22 -56 22 -45 0 -67 -5 -92 -22z"/>
<path d="M2917 4163 c-4 -3 -7 -13 -7 -21 0 -11 9 -13 45 -7 42 6 48 4 75 -25
16 -17 34 -29 40 -25 15 10 12 21 -16 54 -23 27 -32 31 -78 31 -29 0 -56 -3
-59 -7z"/>
<path d="M3158 4049 c-10 -5 -18 -17 -18 -25 0 -12 9 -13 49 -8 56 7 84 -4
122 -48 21 -25 27 -28 37 -15 10 11 7 21 -11 48 -12 18 -34 39 -47 46 -30 15
-108 16 -132 2z"/>
<path d="M1736 4025 c-37 -19 -55 -44 -56 -72 0 -32 22 -28 41 6 11 18 28 31
48 36 22 5 31 12 31 26 0 23 -24 25 -64 4z"/>
<path d="M3390 3925 c-10 -12 -9 -16 6 -21 53 -16 63 -24 66 -51 3 -32 31 -39
36 -10 8 38 -8 68 -43 83 -43 18 -50 18 -65 -1z"/>
<path d="M1544 3896 c-35 -15 -64 -51 -64 -78 0 -21 22 -36 28 -19 11 32 55
71 82 71 40 0 60 9 53 26 -7 18 -58 18 -99 0z"/>
<path d="M2276 3539 c-34 -27 -33 -41 1 -28 19 7 29 7 31 0 2 -6 12 -21 22
-33 15 -20 21 -21 44 -10 14 6 26 19 26 27 0 11 6 15 19 10 13 -4 20 0 24 14
8 31 -12 41 -79 41 -47 0 -67 -5 -88 -21z"/>
<path d="M2528 3550 c-20 -12 -13 -50 10 -50 9 0 26 -10 39 -22 19 -18 27 -20
48 -10 14 6 25 18 25 27 0 18 31 20 49 3 10 -11 12 -9 9 7 -7 42 -132 73 -180
45z"/>
<path d="M2495 3408 c-16 -4 -40 -6 -53 -3 -20 5 -23 2 -20 -17 2 -19 10 -24
44 -26 42 -3 69 14 62 41 -2 10 -10 12 -33 5z"/>
<path d="M1350 2270 c0 -399 4 -678 11 -742 30 -274 132 -500 292 -644 152
-136 360 -235 679 -323 l148 -40 142 39 c334 90 528 182 686 325 161 147 261
367 291 643 7 64 11 343 11 742 l0 640 -1130 0 -1130 0 0 -640z m940 190 l0
-400 -440 0 -440 0 0 400 0 400 440 0 440 0 0 -400z m1260 0 l0 -400 -440 0
-440 0 0 400 0 400 440 0 440 0 0 -400z m-1260 -1290 c0 -448 -2 -530 -14
-530 -28 0 -223 72 -323 120 -109 52 -175 93 -238 149 -45 40 -135 142 -135
154 0 4 50 7 110 7 91 0 110 -3 110 -15 0 -11 12 -15 50 -15 38 0 50 4 50 15
0 13 21 15 125 15 l125 0 0 215 0 215 -25 0 c-22 0 -25 4 -25 38 l0 37 -58 4
c-31 3 -118 5 -192 5 -74 0 -161 -2 -192 -5 l-58 -4 0 -37 c0 -35 -2 -38 -30
-38 l-30 0 0 -187 c0 -127 -4 -183 -10 -173 -22 33 -73 179 -91 259 -10 47
-22 134 -26 194 l-6 107 441 0 442 0 0 -530z m1264 522 c8 -14 -14 -222 -34
-313 -21 -95 -77 -249 -91 -249 -5 0 -9 78 -9 185 l0 185 -25 0 c-22 0 -25 4
-25 38 l0 37 -58 4 c-31 3 -118 5 -192 5 -74 0 -161 -2 -192 -5 l-58 -4 0 -37
c0 -35 -2 -38 -30 -38 l-30 0 0 -215 0 -215 130 0 c109 0 130 -2 130 -15 0
-11 12 -15 50 -15 38 0 50 4 50 15 0 12 19 15 110 15 61 0 110 -4 110 -8 0 -5
-32 -43 -71 -85 -77 -84 -195 -168 -310 -221 -79 -36 -302 -116 -325 -116 -12
0 -14 84 -14 530 l0 530 439 0 c242 0 442 -4 445 -8z m-1736 -343 l2 -186 -30
5 c-17 2 -50 -1 -74 -7 -78 -19 -77 -23 -74 183 l3 181 40 6 c22 4 60 6 85 5
l45 -1 3 -186z m180 184 l52 -6 -2 -186 -3 -186 -40 5 c-22 2 -59 4 -82 5
l-43 0 0 188 0 187 33 0 c17 0 56 -3 85 -7z m1090 -184 l2 -186 -30 5 c-17 2
-50 -1 -74 -7 -78 -19 -77 -23 -74 183 l3 181 40 6 c22 4 60 6 85 5 l45 -1 3
-186z m180 184 l52 -6 -2 -186 -3 -186 -40 5 c-22 2 -59 4 -82 5 l-43 0 0 188
0 187 33 0 c17 0 56 -3 85 -7z"/>
<path d="M1680 2729 c-25 -5 -53 -7 -62 -5 -15 3 -18 -3 -18 -35 0 -37 -2 -39
-30 -39 l-30 0 0 -215 0 -215 124 0 c101 0 125 -3 130 -15 4 -11 20 -15 56
-15 38 0 50 4 50 15 0 13 21 15 125 15 l125 0 0 215 0 215 -25 0 c-22 0 -25 4
-25 38 0 43 24 38 -220 45 -85 3 -175 1 -200 -4z m138 -230 l2 -186 -30 5
c-17 2 -50 -1 -74 -7 -78 -19 -77 -23 -74 183 l3 181 35 6 c19 4 58 6 85 5
l50 -1 3 -186z m180 184 l52 -6 -2 -186 -3 -186 -40 5 c-22 2 -59 4 -82 5
l-43 0 0 188 0 187 33 0 c17 0 56 -3 85 -7z"/>
<path d="M2950 2729 c-25 -5 -53 -7 -62 -5 -15 3 -18 -3 -18 -35 0 -37 -2 -39
-30 -39 l-30 0 0 -215 0 -215 130 0 c109 0 130 -2 130 -15 0 -11 12 -15 50
-15 38 0 50 4 50 15 0 13 21 15 125 15 l125 0 0 215 0 215 -25 0 c-22 0 -25 4
-25 38 0 43 24 38 -220 45 -85 3 -175 1 -200 -4z m130 -228 l0 -188 -24 4
c-13 3 -48 0 -77 -6 -29 -6 -56 -8 -60 -4 -5 5 -9 89 -10 188 l-1 180 39 6
c21 3 59 7 86 8 l47 1 0 -189z m231 173 c5 -3 9 -85 9 -184 0 -201 1 -198 -76
-179 -24 6 -57 9 -74 7 l-30 -5 0 182 c0 100 3 185 8 189 7 9 147 0 163 -10z"/>
</g>
</svg>
