<?xml version="1.0" encoding="UTF-8"?>
<svg width="54px" height="54px" viewBox="0 0 54 54" version="1.1" xmlns="http://www.w3.org/2000/svg" xmlns:xlink="http://www.w3.org/1999/xlink">
    <!-- Generator: Sketch 52 (66869) - http://www.bohemiancoding.com/sketch -->
    <title>flaticon1529289123-svg</title>
    <desc>Created with Sketch.</desc>
    <g id="Symbols" stroke="none" stroke-width="1" fill="none" fill-rule="evenodd">
        <g id="Home/Difference" transform="translate(-693.000000, -359.000000)" fill="#C00404" fill-rule="nonzero">
            <g id="Brown-Difference">
                <g id="Group-5" transform="translate(632.000000, 359.000000)">
                    <g id="flaticon1529289123-svg" transform="translate(61.000000, 0.000000)">
                        <path d="M27.0095596,2.88784243e-07 C16.2061849,-0.00157471109 6.44231866,6.43938727 2.19014188,16.372799 L1.85361198,16.484399 L1.9840848,16.8758989 C-3.61454901,30.6870728 3.04057724,46.422784 16.848876,52.0225836 C20.0739167,53.3305085 23.5214361,54.0019084 27.0015737,53.9999959 C41.9101183,54.0022459 53.9977505,41.9156969 54,27.0040481 C54.0022495,12.0923993 41.9182166,0.00213778861 27.0095596,2.88784243e-07 Z M48.1836115,40.612947 L46.7974503,39.2273971 L46.7974503,35.9999974 C46.7990249,35.8607224 46.7682064,35.7230224 46.707469,35.5976974 L43.1982,28.587598 L43.1982,25.1999983 C43.1982,24.8991733 43.0480438,24.6181483 42.7977834,24.4511983 L40.0983457,22.6511985 C39.8867773,22.5098985 39.6252692,22.464786 39.3784956,22.5269985 L36.0725842,23.3531984 L30.5198409,20.9699986 L29.7559,15.616799 L31.873159,13.4999992 L36.4181123,13.4999992 L37.9477936,15.799499 C38.0859149,16.006274 38.303557,16.1467865 38.5488684,16.187399 L43.9477439,17.0873989 C44.0923887,17.1116989 44.2406329,17.0998864 44.3796539,17.0531989 L49.3520182,15.395399 C53.522537,23.4003359 53.0764549,33.0281976 48.1836115,40.612947 Z M44.4723346,8.86859957 L43.0092394,9.84419949 L38.930389,9.02789956 L36.2840402,8.14679963 C36.1220739,8.09178713 35.9477352,8.08481214 35.7819448,8.12699963 L32.4364416,8.96309956 L30.9697472,8.4743996 L32.0567207,6.29999978 L35.0998869,6.29999978 C35.2394703,6.30011228 35.3771416,6.26782478 35.5021031,6.20549979 L38.6154546,4.64849991 C40.759483,5.76787482 42.7318721,7.18897471 44.4723346,8.86859957 Z M17.1459266,3.80969998 L19.3054768,5.24969986 C19.4116547,5.32034986 19.5315547,5.36759986 19.6573035,5.38829985 L24.0177952,6.11549979 L23.5921839,7.38899969 L21.3201571,8.14769963 C21.116687,8.21542462 20.9440355,8.35357461 20.8333585,8.5373996 L18.2490968,12.8447993 L14.0982614,15.335999 L7.97953596,16.209899 C7.53604084,16.2725615 7.20625954,16.6520239 7.20569715,17.0999989 L7.20569715,19.7999987 C7.20569715,20.0387237 7.30062738,20.2675487 7.46934224,20.4362986 L9.0053223,21.9725985 L9.0053223,23.5187984 L5.262102,21.0221986 L3.90428483,16.9478989 C6.48764672,11.0438994 11.2225729,6.34589978 17.1459266,3.80969998 Z M14.5841602,33.3179976 L10.5170074,32.5034977 L9.0053223,29.4875979 L9.0053223,27.3725981 L12.3580239,24.0191983 L13.5988655,26.5022981 C13.7512712,26.8073981 14.0631688,27.0001106 14.4041977,26.9999981 L20.1935918,26.9999981 L22.6311841,31.0634978 C22.7938252,31.3342853 23.0864892,31.4998852 23.4023234,31.4999977 L25.9038024,31.4999977 L25.2739336,34.6562975 L21.8672432,38.0636972 C21.6981909,38.2323347 21.6030357,38.4611597 21.6026983,38.6999972 L21.6026983,40.949997 L18.363373,43.3799968 C18.1368452,43.5499843 18.003448,43.8167217 18.003448,44.0999967 L18.003448,47.3507965 L16.8840812,46.9799965 L15.3040103,43.0271968 L15.3040103,34.1999975 C15.3041228,33.7722726 15.0031355,33.4034976 14.5841602,33.3179976 Z M11.8793236,47.153359 C3.39532835,40.787097 -0.192561805,29.7872979 2.90549288,19.6415987 L3.65323712,21.8843985 C3.716224,22.074186 3.84062309,22.2376485 4.00686346,22.3487985 L8.49242913,25.3394982 L7.46934224,26.3636982 C7.30062738,26.5324481 7.20569715,26.7612731 7.20569715,26.9999981 L7.20569715,29.6999979 C7.20558468,29.8396104 7.23786545,29.9773104 7.30017747,30.1022979 L9.09980262,33.7022976 C9.22442666,33.9509225 9.45691573,34.1279975 9.72967142,34.1819975 L13.5088842,34.9370975 L13.5088842,43.1999968 C13.5087717,43.3142968 13.5304797,43.4276968 13.5727709,43.5338968 L15.372396,48.0338964 C15.4709255,48.2797089 15.6727085,48.4697214 15.9239812,48.5531964 L18.6234189,49.4531963 C18.7136251,49.4837963 18.8081054,49.4995463 18.9032606,49.4999963 C19.4001821,49.4999963 19.8030731,49.0970213 19.8030731,48.5999964 L19.8030731,44.5499967 L23.0423984,42.1199969 C23.2689262,41.9500094 23.4023234,41.6832719 23.4023234,41.3999969 L23.4023234,39.0725971 L26.7379286,35.7362974 C26.86334,35.6106349 26.9488222,35.4505474 26.9835775,35.2763974 L27.88339,30.7763978 C27.9807947,30.2889353 27.6647356,29.8148604 27.1773746,29.7174354 C27.1194492,29.7058479 27.0606239,29.6999979 27.0015737,29.6999979 L23.9116173,29.6999979 L21.4740251,25.6364982 C21.311384,25.3657107 21.0187199,25.2001108 20.7028857,25.1999983 L14.9602819,25.1999983 L13.4144039,22.0976985 C13.2849434,21.8387235 13.0388446,21.6578235 12.7530417,21.6116985 C12.4673512,21.562311 12.1756994,21.656586 11.9729042,21.8636985 L10.8049474,23.0273984 L10.8049474,21.5999985 C10.8049474,21.3612736 10.7100172,21.1324486 10.5413024,20.9636986 L9.0053223,19.4273987 L9.0053223,17.8802988 L14.5319711,17.0909989 C14.6506339,17.0737864 14.7647976,17.0330614 14.8676012,16.9712989 L19.3666641,14.2712991 C19.4928628,14.1954741 19.5985907,14.0897242 19.6743999,13.9634992 L22.2028733,9.7487995 L24.5864768,8.95319957 C24.8556332,8.86488707 25.0668642,8.65372459 25.1551583,8.38439961 L26.0549709,5.68439983 C26.2108634,5.21246237 25.9547543,4.70339991 25.482915,4.54747492 C25.4393866,4.53307492 25.3947334,4.52204992 25.3495178,4.51439992 L20.1414027,3.64589999 L19.2262933,3.03570004 C24.8887013,1.19227519 31.0215989,1.42042517 36.5314887,3.67919999 L34.8875311,4.49999993 L31.5006366,4.49999993 C31.1579205,4.49808743 30.8439983,4.69113741 30.6908053,4.99769988 L28.8911801,8.59769959 C28.6694888,9.04252456 28.8502386,9.58297451 29.294971,9.804712 C29.3328756,9.823612 29.3720175,9.83981199 29.4121716,9.85319949 L32.1116093,10.7531994 C32.2735756,10.8082119 32.4479143,10.8151869 32.6137047,10.7729994 L35.9592079,9.93689949 L38.4102973,10.7531994 C38.44539,10.7657994 38.481495,10.7754744 38.5182748,10.7819994 L43.0173377,11.6819993 C43.2512889,11.7296993 43.4946882,11.6817743 43.6930969,11.5487994 L45.7410703,10.1825995 C46.7489729,11.3054619 47.6547467,12.5159618 48.4477065,13.7996992 L44.0206287,15.2756991 L39.2273271,14.4764991 L37.643657,12.1004993 C37.4776416,11.8515368 37.1986997,11.7014618 36.899512,11.6999993 L31.5006366,11.6999993 C31.2619613,11.6999993 31.0331839,11.7949493 30.8644691,11.9636993 L28.1650314,14.6636991 C27.9645981,14.8640616 27.8702303,15.1472241 27.9103844,15.427799 L28.810197,21.7277985 C28.855525,22.039311 29.0602324,22.3044735 29.3500845,22.4270985 L35.6487725,25.1270983 C35.8291849,25.2052858 36.030518,25.2213733 36.2210533,25.1729983 L39.434284,24.3692983 L41.3985749,25.6814982 L41.3985749,28.799998 C41.3970002,28.939273 41.4278188,29.0769729 41.4885561,29.2022979 L44.9978251,36.2123974 L44.9978251,39.5999971 C44.9978251,39.8387221 45.0927554,40.0675471 45.2614702,40.236297 L47.1438781,42.1199969 C38.7955296,53.2499585 23.0069683,55.5035583 11.8793236,47.153359 Z" id="Shape"></path>
                    </g>
                </g>
            </g>
        </g>
    </g>
</svg>